<svg xmlns="http://www.w3.org/2000/svg" width="30.655" height="35.431" viewBox="0 0 30.655 35.431">
  <g id="file-content" transform="translate(-3 -1)">
    <path id="Path_1150" data-name="Path 1150" d="M14.746,2V12.746H4" fill="none" stroke="#adadad" stroke-linecap="round" stroke-linejoin="round" stroke-width="2"/>
    <path id="Path_1151" data-name="Path 1151" d="M12.5,3.049A3.582,3.582,0,0,1,15.035,2H29.073a3.582,3.582,0,0,1,3.582,3.582V31.849a3.582,3.582,0,0,1-3.582,3.582H7.582A3.582,3.582,0,0,1,4,31.849V13.035A3.582,3.582,0,0,1,5.049,10.5Z" fill="none" stroke="#adadad" stroke-linecap="round" stroke-linejoin="round" stroke-width="2"/>
    <path id="Path_1152" data-name="Path 1152" d="M9,23H25.716" transform="translate(0.97 4.073)" fill="none" stroke="#319e74" stroke-linecap="round" stroke-linejoin="round" stroke-width="2"/>
    <path id="Path_1153" data-name="Path 1153" d="M9,17H25.716" transform="translate(0.97 2.91)" fill="none" stroke="#319e74" stroke-linecap="round" stroke-linejoin="round" stroke-width="2"/>
    <path id="Path_1154" data-name="Path 1154" d="M18,11h5.97" transform="translate(2.716 1.746)" fill="none" stroke="#319e74" stroke-linecap="round" stroke-linejoin="round" stroke-width="2"/>
  </g>
</svg>
