<svg xmlns="http://www.w3.org/2000/svg" width="28.678" height="28.577" viewBox="0 0 28.678 28.577">
  <g id="notification" transform="translate(-604.067 -254.614)">
    <g id="notification_logo" data-name="notification logo" transform="translate(604.067 254.614)">
      <g id="logo" transform="matrix(1, 0.017, -0.017, 1, 0.49, 0)">
        <path id="Path_380" data-name="Path 380" d="M27.73,20.513c-2.845-2.7-3.421-6.406-3.978-9.99C22.985,5.59,22.117,0,14.1,0S5.207,5.59,4.44,10.523c-.557,3.584-1.133,7.29-3.978,9.99a1.484,1.484,0,0,0,1.023,2.561H8.472a5.661,5.661,0,0,0,11.247,0h6.987a1.484,1.484,0,0,0,1.023-2.561ZM14.1,25.492A3.068,3.068,0,0,1,11.1,23.074H17.09A3.068,3.068,0,0,1,14.1,25.492ZM4.6,20.1c1.806-2.892,2.314-6.16,2.775-9.126.841-5.409,1.477-8.009,6.72-8.009s5.88,2.6,6.72,8.009c.461,2.966.969,6.235,2.775,9.126Z" transform="translate(0 0)" fill="#319e74"/>
      </g>
    </g>
  </g>
</svg>
