<svg xmlns="http://www.w3.org/2000/svg" width="27.654" height="17.5" viewBox="0 0 27.654 17.5">
  <g id="selfie-2" transform="translate(-2.5 -10.5)">
    <path id="Path_1137" data-name="Path 1137" d="M14.522,34.284A6.572,6.572,0,0,1,20.537,30a6.572,6.572,0,0,1,6.015,4.284" transform="translate(-4.21 -6.942)" fill="none" stroke="#f7f7f7" stroke-linecap="round" stroke-linejoin="round" stroke-width="1"/>
    <path id="Path_1138" data-name="Path 1138" d="M29.654,24.327V14.173A3.173,3.173,0,0,0,26.481,11H6.173A3.173,3.173,0,0,0,3,14.173V24.327A3.173,3.173,0,0,0,6.173,27.5H26.481A3.173,3.173,0,0,0,29.654,24.327Z" fill="none" stroke="#f7f7f7" stroke-linecap="round" stroke-linejoin="round" stroke-width="1"/>
    <path id="Path_1139" data-name="Path 1139" d="M8.635,21.317V24.49a.317.317,0,1,1-.635,0V21.317a.317.317,0,0,1,.635,0Z" transform="translate(-1.827 -3.654)" fill="none" stroke="#f7f7f7" stroke-linecap="round" stroke-linejoin="round" stroke-width="1"/>
    <path id="Path_1140" data-name="Path 1140" d="M22.356,22.712A2.856,2.856,0,1,0,19.5,19.856,2.856,2.856,0,0,0,22.356,22.712Z" transform="translate(-6.029 -2.192)" fill="none" stroke="#f7f7f7" stroke-linecap="round" stroke-linejoin="round" stroke-width="1"/>
    <path id="Path_1141" data-name="Path 1141" d="M38.635,17.269A.635.635,0,1,0,38,16.635.635.635,0,0,0,38.635,17.269Z" transform="translate(-12.788 -1.827)" fill="#f7f7f7" stroke="#f7f7f7" stroke-linecap="round" stroke-linejoin="round" stroke-width="1"/>
  </g>
</svg>
