<svg xmlns="http://www.w3.org/2000/svg" width="33.674" height="34.221" viewBox="0 0 33.674 34.221">
  <g id="swap" transform="translate(-3.25 -2)">
    <path id="Path_1145" data-name="Path 1145" d="M14,3a4.6,4.6,0,0,1,4.6,4.6V9.9" transform="translate(13.293 0)" fill="none" stroke="#319e74" stroke-linecap="round" stroke-linejoin="round" stroke-width="2"/>
    <path id="Path_1146" data-name="Path 1146" d="M8.6,20.9A4.6,4.6,0,0,1,4,16.3V14" transform="translate(4.278 14.317)" fill="none" stroke="#319e74" stroke-linecap="round" stroke-linejoin="round" stroke-width="2"/>
    <path id="Path_1147" data-name="Path 1147" d="M22.305,6l-4.028,4.6L14.25,6Z" transform="translate(13.618 3.905)" fill="#319e74" stroke="#319e74" stroke-linecap="round" stroke-linejoin="round" stroke-width="2"/>
    <path id="Path_1148" data-name="Path 1148" d="M2.25,16.6,6.278,12l4.028,4.6Z" transform="translate(2 11.714)" fill="#319e74" stroke="#319e74" stroke-linecap="round" stroke-linejoin="round" stroke-width="2"/>
    <path id="Path_1149" data-name="Path 1149" d="M20.072,11.447c.007-.133.039-.258.039-.391A8.055,8.055,0,1,0,9.844,18.763" transform="translate(2.278 0)" fill="none" stroke="#319e74" stroke-linecap="round" stroke-linejoin="round" stroke-width="2"/>
    <circle id="Ellipse_1219" data-name="Ellipse 1219" cx="7.055" cy="7.055" r="7.055" transform="translate(18.785 20.111)" fill="#adadad" stroke="#adadad" stroke-linecap="round" stroke-linejoin="round" stroke-width="2"/>
  </g>
</svg>
