<svg xmlns="http://www.w3.org/2000/svg" width="36.613" height="33.98" viewBox="0 0 36.613 33.98">
  <g id="wallet-2" transform="translate(-1.25 -0.842)">
    <path id="Path_1142" data-name="Path 1142" d="M2.25,12.935A8.488,8.488,0,0,1,9.309,4.568L24.973,1.895a2.389,2.389,0,0,1,2.538,1.287" transform="translate(0 0)" fill="none" stroke="#adadad" stroke-linecap="round" stroke-linejoin="round" stroke-width="2"/>
    <path id="Path_1143" data-name="Path 1143" d="M34.476,21.46v3.581A4.773,4.773,0,0,1,29.7,29.815H7.024A4.773,4.773,0,0,1,2.25,25.041V9.524A4.773,4.773,0,0,1,7.024,4.75H29.7a4.773,4.773,0,0,1,4.774,4.774V13.1" transform="translate(0 4.008)" fill="none" stroke="#adadad" stroke-linecap="round" stroke-linejoin="round" stroke-width="2"/>
    <path id="Path_1144" data-name="Path 1144" d="M21.992,16.6H15.427a4.177,4.177,0,0,1,0-8.355h6.565a2.388,2.388,0,0,1,2.387,2.387v3.581A2.388,2.388,0,0,1,21.992,16.6Z" transform="translate(12.484 8.863)" fill="none" stroke="#319e74" stroke-linecap="round" stroke-linejoin="round" stroke-width="2"/>
  </g>
</svg>
